<svg width="21" height="22" viewBox="0 0 21 22" fill="none" xmlns="http://www.w3.org/2000/svg">
<path d="M0.475378 20.0404C0.221537 20.2942 0.221537 20.7058 0.475378 20.9596C0.729219 21.2135 1.14078 21.2135 1.39462 20.9596L0.475378 20.0404ZM20.585 1.5C20.585 1.14102 20.294 0.850001 19.935 0.850001L14.085 0.850001C13.726 0.850001 13.435 1.14102 13.435 1.5C13.435 1.85899 13.726 2.15 14.085 2.15L19.285 2.15L19.285 7.35C19.285 7.70899 19.576 8 19.935 8C20.294 8 20.585 7.70899 20.585 7.35L20.585 1.5ZM1.39462 20.9596L20.3946 1.95962L19.4754 1.04038L0.475378 20.0404L1.39462 20.9596Z" fill="#1E1E1E"/>
</svg>
