<svg width="19" height="10" viewBox="0 0 19 10" fill="none" xmlns="http://www.w3.org/2000/svg">
<path d="M18 5.65C18.359 5.65 18.65 5.35899 18.65 5C18.65 4.64101 18.359 4.35 18 4.35L18 5.65ZM0.540381 4.54038C0.286539 4.79422 0.286539 5.20578 0.54038 5.45962L4.67695 9.59619C4.9308 9.85003 5.34235 9.85003 5.59619 9.59619C5.85003 9.34235 5.85003 8.93079 5.59619 8.67695L1.91924 5L5.59619 1.32304C5.85004 1.0692 5.85004 0.657646 5.59619 0.403805C5.34235 0.149964 4.9308 0.149964 4.67696 0.403805L0.540381 4.54038ZM18 4.35L1 4.35L1 5.65L18 5.65L18 4.35Z" fill="#1E1E1E"/>
</svg>
