<svg width="23" height="23" viewBox="0 0 23 23" fill="none" xmlns="http://www.w3.org/2000/svg">
<path d="M1.67818 21.6957C3.0188 23.0626 5.19238 23.0626 6.533 21.6957C7.87362 20.3288 7.87362 18.1126 6.533 16.7457C5.19238 15.3789 3.0188 15.3789 1.67818 16.7457C0.337558 18.1126 0.337558 20.3288 1.67818 21.6957ZM22.6979 0.920479C22.6979 0.558028 22.4097 0.264204 22.0542 0.264205L16.2612 0.264204C15.9057 0.264204 15.6175 0.558029 15.6175 0.920479C15.6175 1.28293 15.9057 1.57675 16.2612 1.57675L21.4105 1.57675L21.4105 6.82695C21.4105 7.1894 21.6987 7.48322 22.0542 7.48322C22.4097 7.48322 22.6979 7.1894 22.6979 6.82695L22.6979 0.920479ZM4.56073 19.6848L22.5093 1.38453L21.5991 0.456423L3.65045 18.7566L4.56073 19.6848Z" fill="white"/>
</svg>
