<svg width="22" height="22" viewBox="0 0 22 22" fill="none" xmlns="http://www.w3.org/2000/svg">
<path d="M1.98498 20.1808C3.33879 21.5346 5.53377 21.5346 6.88758 20.1808C8.2414 18.827 8.2414 16.632 6.88758 15.2782C5.53377 13.9244 3.33879 13.9244 1.98498 15.2782C0.631159 16.632 0.631159 18.827 1.98498 20.1808ZM21.7328 1.08297C21.7328 0.723983 21.4418 0.432968 21.0828 0.432968L15.2328 0.432968C14.8738 0.432968 14.5828 0.723984 14.5828 1.08297C14.5828 1.44195 14.8738 1.73297 15.2328 1.73297L20.4328 1.73297L20.4328 6.93297C20.4328 7.29195 20.7238 7.58297 21.0828 7.58297C21.4418 7.58297 21.7328 7.29195 21.7328 6.93297L21.7328 1.08297ZM4.8959 18.1891L21.5424 1.54259L20.6232 0.623349L3.97666 17.2699L4.8959 18.1891Z" fill="#1E1E1E"/>
</svg>
