<svg width="20" height="20" viewBox="0 0 20 20" fill="none" xmlns="http://www.w3.org/2000/svg">
<path d="M1.54873 1.5487C0.19491 2.90251 0.19491 5.09749 1.54873 6.4513C2.90254 7.80512 5.09752 7.80512 6.45133 6.4513C7.80515 5.09749 7.80515 2.90251 6.45133 1.5487C5.09752 0.194879 2.90254 0.194879 1.54873 1.5487ZM18.7894 19.4394C19.1484 19.4394 19.4394 19.1484 19.4394 18.7894L19.4394 12.9394C19.4394 12.5804 19.1484 12.2894 18.7894 12.2894C18.4305 12.2894 18.1394 12.5804 18.1394 12.9394L18.1394 18.1394L12.9394 18.1394C12.5805 18.1394 12.2894 18.4304 12.2894 18.7894C12.2894 19.1484 12.5805 19.4394 12.9394 19.4394L18.7894 19.4394ZM3.54041 4.45962L18.3298 19.249L19.2491 18.3298L4.45965 3.54038L3.54041 4.45962Z" fill="#E44B1A"/>
</svg>
