<svg width="151" height="29" viewBox="0 0 151 29" fill="none" xmlns="http://www.w3.org/2000/svg">
<path d="M60.62 7H62.02V5.41998L62.59 4.83002L63.91 7H65.62L63.56 3.83002L65.52 1.79999H63.87L62.02 3.90002V1.79999H60.62V7ZM65.68 7H67.1L68.3 3.31L69.5 7H71L69.13 1.79999H67.55L65.68 7ZM75.5 1.79999H74L72.97 5.22998L71.7 1.79999H70.2L72.3 7C72.1 7.48 71.9 7.75 71.4 7.75C71.05 7.75 70.75 7.65002 70.75 7.65002V8.79999C70.75 8.79999 71.15 8.95001 71.65 8.95001C72.7 8.95001 73.24 8.34002 73.65 7.15002L75.5 1.79999ZM77.1 4.54999C77.1 3.70999 77.46 3 78.35 3C79.24 3 79.6 3.70999 79.6 4.54999C79.6 5.38999 79.24 6.09998 78.35 6.09998C77.46 6.09998 77.1 5.38999 77.1 4.54999ZM78.35 7.15002C80.1 7.15002 81 5.94999 81 4.54999C81 3.14999 80.1 1.95001 78.55 1.95001C77.35 1.95001 76.9 2.75 76.9 2.75H76.85C77.02 1.65 77.44 1.15002 78.57 1.15002H80.6V0H78.69C77.24 0 75.65 0.499976 75.65 3.84998C75.65 6.34998 76.95 7.15002 78.35 7.15002ZM66.92 11.8H64.82L63.77 15.4L62.72 11.8H60.62V17H61.92V13.35H61.97L63.12 17H64.42L65.57 13.35H65.62V17H66.92V11.8ZM68.77 14.4C68.77 13.46 69.13 12.7 70.02 12.7C70.91 12.7 71.27 13.46 71.27 14.4C71.27 15.34 70.91 16.1 70.02 16.1C69.13 16.1 68.77 15.34 68.77 14.4ZM67.37 14.4C67.37 15.92 68.31 17.15 70.02 17.15C71.73 17.15 72.67 15.92 72.67 14.4C72.67 12.88 71.73 11.65 70.02 11.65C68.31 11.65 67.37 12.88 67.37 14.4ZM72.62 17H74.04L75.24 13.31L76.44 17H77.94L76.07 11.8H74.49L72.62 17ZM79.29 14.4C79.29 13.46 79.65 12.7 80.54 12.7C81.43 12.7 81.79 13.46 81.79 14.4C81.79 15.34 81.43 16.1 80.54 16.1C79.65 16.1 79.29 15.34 79.29 14.4ZM77.89 14.4C77.89 15.92 78.83 17.15 80.54 17.15C82.25 17.15 83.19 15.92 83.19 14.4C83.19 12.88 82.25 11.65 80.54 11.65C78.83 11.65 77.89 12.88 77.89 14.4ZM88.84 11.8H87.49V12.5H87.44C87.44 12.5 86.99 11.65 85.84 11.65C84.34 11.65 83.59 12.95 83.59 14.3C83.59 15.65 84.34 16.95 85.84 16.95C86.94 16.95 87.39 16.25 87.39 16.25H87.44V16.5C87.44 17.4 87.13 17.9 86.24 17.9C85.24 17.9 85.19 17.15 85.19 17.15H83.79C83.79 17.15 83.84 18.95 86.24 18.95C88.04 18.95 88.84 17.9 88.84 16.4V11.8ZM87.49 14.3C87.49 15.14 87.09 15.9 86.24 15.9C85.39 15.9 84.99 15.14 84.99 14.3C84.99 13.46 85.39 12.7 86.24 12.7C87.09 12.7 87.49 13.46 87.49 14.3ZM89.34 17H91.34C92.79 17 93.59 16.35 93.59 15.35C93.59 14.35 92.79 13.7 91.34 13.7H90.74V11.8H89.34V17ZM91.14 14.7C91.89 14.7 92.19 14.9 92.19 15.35C92.19 15.8 91.89 16 91.14 16H90.74V14.7H91.14ZM95.39 11.8H93.99V17H95.39V11.8ZM97.54 11.8H95.89L97.69 14.3L95.74 17H97.39L98.49 15.3L99.59 17H101.24L99.29 14.3L101.09 11.8H99.44L98.49 13.3L97.54 11.8ZM60.61 27H62.01V24.3C62.01 23.25 62.41 22.8 63.16 22.8C63.81 22.8 64.06 23.2 64.06 24.1V27H65.46V23.8C65.46 22.6 65.06 21.65 63.61 21.65C62.46 21.65 62.01 22.65 62.01 22.65H61.96V21.8H60.61V27ZM65.96 28.8H67.36V26.45H67.41C67.41 26.45 67.86 27.15 68.96 27.15C70.46 27.15 71.21 25.85 71.21 24.4C71.21 22.95 70.46 21.65 68.96 21.65C67.81 21.65 67.36 22.5 67.36 22.5H67.31V21.8H65.96V28.8ZM67.31 24.4C67.31 23.46 67.71 22.7 68.56 22.7C69.41 22.7 69.81 23.46 69.81 24.4C69.81 25.34 69.41 26.1 68.56 26.1C67.71 26.1 67.31 25.34 67.31 24.4ZM71.61 24.4C71.61 25.92 72.46 27.15 74.21 27.15C76.36 27.15 76.66 25.3 76.66 25.3H75.26C75.26 25.3 75.11 26.1 74.26 26.1C73.41 26.1 73.08 25.5 73.02 24.7H76.7C76.7 24.7 76.71 24.52 76.71 24.4C76.71 22.88 75.92 21.65 74.21 21.65C72.5 21.65 71.61 22.88 71.61 24.4ZM74.21 22.7C74.9 22.7 75.18 23.16 75.27 23.8H73.06C73.18 23.16 73.52 22.7 74.21 22.7ZM82.36 21.8H81.01V22.5H80.96C80.96 22.5 80.51 21.65 79.36 21.65C77.86 21.65 77.11 22.95 77.11 24.3C77.11 25.65 77.86 26.95 79.36 26.95C80.46 26.95 80.91 26.25 80.91 26.25H80.96V26.5C80.96 27.4 80.65 27.9 79.76 27.9C78.76 27.9 78.71 27.15 78.71 27.15H77.31C77.31 27.15 77.36 28.95 79.76 28.95C81.56 28.95 82.36 27.9 82.36 26.4V21.8ZM81.01 24.3C81.01 25.14 80.61 25.9 79.76 25.9C78.91 25.9 78.51 25.14 78.51 24.3C78.51 23.46 78.91 22.7 79.76 22.7C80.61 22.7 81.01 23.46 81.01 24.3ZM82.86 27H84.26V24.3C84.26 23.25 84.66 22.8 85.41 22.8C86.06 22.8 86.31 23.2 86.31 24.1V27H87.71V23.8C87.71 22.6 87.31 21.65 85.86 21.65C84.71 21.65 84.26 22.65 84.26 22.65H84.21V21.8H82.86V27ZM88.21 28.8H89.61V26.45H89.66C89.66 26.45 90.11 27.15 91.21 27.15C92.71 27.15 93.46 25.85 93.46 24.4C93.46 22.95 92.71 21.65 91.21 21.65C90.06 21.65 89.61 22.5 89.61 22.5H89.56V21.8H88.21V28.8ZM89.56 24.4C89.56 23.46 89.96 22.7 90.81 22.7C91.66 22.7 92.06 23.46 92.06 24.4C92.06 25.34 91.66 26.1 90.81 26.1C89.96 26.1 89.56 25.34 89.56 24.4ZM98.76 21.8H97.36V24.5C97.36 25.55 96.96 26 96.21 26C95.56 26 95.31 25.6 95.31 24.7V21.8H93.91V25C93.91 26.2 94.31 27.15 95.76 27.15C96.91 27.15 97.36 26.15 97.36 26.15H97.41V27H98.76V21.8ZM102.61 27H104.01V21.8H102.61V23.85H100.66V21.8H99.26V27H100.66V24.95H102.61V27ZM109.37 21.8H107.97V24.5C107.97 25.55 107.57 26 106.82 26C106.17 26 105.92 25.6 105.92 24.7V21.8H104.52V25C104.52 26.2 104.92 27.15 106.37 27.15C107.52 27.15 107.97 26.15 107.97 26.15H108.02V27H109.37V21.8ZM116.17 21.8H114.07L113.02 25.4L111.97 21.8H109.87V27H111.17V23.35H111.22L112.37 27H113.67L114.82 23.35H114.87V27H116.17V21.8ZM118.12 23.4C118.14 22.84 118.47 22.6 119.07 22.6C119.62 22.6 119.92 22.84 119.92 23.25C119.92 23.83 119.1 23.9 118.23 24.12C117.37 24.34 116.57 24.78 116.57 25.75C116.57 26.72 117.27 27.15 118.22 27.15C119.55 27.15 119.87 26 119.87 26H119.92V27H121.32V23.45C121.32 22.1 120.32 21.65 119.07 21.65C117.82 21.65 116.8 22.07 116.72 23.4H118.12ZM119.92 24.38C119.92 25.15 119.67 26.25 118.72 26.25C118.27 26.25 117.99 26 117.99 25.6C117.99 25.14 118.37 24.91 118.82 24.8C119.22 24.7 119.69 24.59 119.92 24.38ZM124.87 27H126.27V24.3C126.27 23.25 126.59 22.8 127.19 22.8C127.74 22.8 127.92 23.2 127.92 24.1V27H129.32V23.8C129.32 22.6 128.97 21.65 127.67 21.65C126.62 21.65 126.17 22.65 126.17 22.65H126.11C125.91 22.05 125.46 21.65 124.62 21.65C123.57 21.65 123.22 22.65 123.22 22.65H123.17V21.8H121.82V27H123.22V24.3C123.22 23.25 123.54 22.8 124.14 22.8C124.69 22.8 124.87 23.2 124.87 24.1V27ZM129.77 24.4C129.77 25.92 130.62 27.15 132.37 27.15C134.52 27.15 134.82 25.3 134.82 25.3H133.42C133.42 25.3 133.27 26.1 132.42 26.1C131.57 26.1 131.24 25.5 131.18 24.7H134.86C134.86 24.7 134.86 24.52 134.86 24.4C134.86 22.88 134.07 21.65 132.36 21.65C130.65 21.65 129.76 22.88 129.76 24.4M132.36 22.7C133.05 22.7 133.33 23.16 133.42 23.8H131.21C131.33 23.16 131.67 22.7 132.36 22.7ZM134.81 27H136.23L137.43 23.31L138.63 27H140.13L138.26 21.8H136.68L134.81 27ZM140.08 24.4C140.08 25.92 140.93 27.15 142.68 27.15C144.83 27.15 145.13 25.3 145.13 25.3H143.73C143.73 25.3 143.58 26.1 142.73 26.1C141.88 26.1 141.55 25.5 141.49 24.7H145.17C145.17 24.7 145.17 24.52 145.17 24.4C145.17 22.88 144.38 21.65 142.67 21.65C140.96 21.65 140.07 22.88 140.07 24.4M142.67 22.7C143.36 22.7 143.64 23.16 143.73 23.8H141.52C141.64 23.16 141.98 22.7 142.67 22.7ZM146.12 21.3H149.97V20.9H146.12V21.3ZM150.47 21.8H149.07V24.5C149.07 25.55 148.67 26 147.92 26C147.27 26 147.02 25.6 147.02 24.7V21.8H145.62V25C145.62 26.2 146.02 27.15 147.47 27.15C148.62 27.15 149.07 26.15 149.07 26.15H149.12V27H150.47V21.8Z" fill="#1D1D1B"/>
<path d="M25.59 7.18963L18.38 14.3996L5.57 27.2096H5.47L0.420002 22.1596L5.44 17.1396L13.75 8.82965H0V1.59961H20.01L25.59 7.18963Z" fill="#1D1D1B"/>
<path d="M25.61 21.5999V27.21H18.38V14.4299L18.39 14.4199L25.59 21.6199L25.61 21.5999Z" fill="#E84C1C"/>
<path d="M25.61 21.6196L32.83 14.3996L45.63 1.59961H45.74L50.78 6.64966L45.77 11.6696L37.45 19.9696H51.2V27.2096H31.2L25.61 21.6196Z" fill="#1D1D1B"/>
<path d="M25.59 7.19964V1.59961H32.83V14.3796L32.81 14.3896L25.61 7.18963L25.59 7.19964Z" fill="#E84C1C"/>
<path d="M25.59 7.18963L18.38 14.3996L5.57 27.2096H5.47L0.420002 22.1596L5.44 17.1396L13.75 8.82965H0V1.59961H20.01L25.59 7.18963Z" fill="#1D1D1B"/>
<path d="M25.61 21.5999V27.21H18.38V14.4299L18.39 14.4199L25.59 21.6199L25.61 21.5999Z" fill="#E84C1C"/>
<path d="M25.59 7.19964V1.59961H32.83V14.3796L32.81 14.3896L25.61 7.18963L25.59 7.19964Z" fill="#E84C1C"/>
</svg>
