<svg width="43" height="7" viewBox="0 0 43 7" fill="none" xmlns="http://www.w3.org/2000/svg">
<path d="M3.95016 4.59774H2.99505V1.24895C2.99505 1.16641 3.00684 1.07208 3.04221 1.00133C2.95967 1.03671 2.86534 1.0485 2.77101 1.03671H1.16737C1.07303 1.03671 0.978707 1.03671 0.896166 1.00133C0.931541 1.08387 0.943324 1.16641 0.943324 1.24895V4.59774H0V0.152344H3.93836V4.59774H3.95016Z" fill="#1D1D1B"/>
<path d="M6.00187 2.3712C5.99007 2.55986 6.01367 2.76032 6.08442 2.93719C6.14337 3.12586 6.24949 3.29094 6.39099 3.43243C6.5207 3.57393 6.68578 3.68005 6.87444 3.7626C7.06311 3.84514 7.25177 3.86872 7.44043 3.86872C8.28942 3.86872 8.77288 3.31452 8.77288 2.38299C8.77288 1.45146 8.26584 0.897258 7.44043 0.897258C7.25177 0.897258 7.06311 0.932633 6.87444 1.00338C6.68578 1.07413 6.5325 1.19205 6.40279 1.32175C6.26129 1.46325 6.16695 1.62833 6.0962 1.817C6.02545 1.99387 6.00188 2.19432 6.01367 2.38299L6.00187 2.3712ZM9.77516 2.3712C9.77516 3.7508 8.879 4.7295 7.6291 4.7295C7.28715 4.74129 6.95699 4.65875 6.66221 4.47009C6.36742 4.29321 6.14336 4.0338 6.00187 3.71543H5.95471C6.02546 4.02201 6.04904 4.32859 6.04904 4.64696V6.48644H5.09393V0.142602H6.01367C6.01367 0.425599 6.01367 0.708594 5.95471 0.99159H5.99008C6.13158 0.685011 6.36742 0.425599 6.66221 0.248726C6.95699 0.0718534 7.28715 -0.010686 7.6291 0.00110547C8.879 0.00110547 9.77516 0.979801 9.77516 2.35941" fill="#1D1D1B"/>
<path d="M11.3552 2.3717C11.3552 2.56037 11.3788 2.74903 11.4378 2.9259C11.5085 3.10278 11.6146 3.26786 11.7444 3.39756C11.8859 3.53906 12.0391 3.6334 12.216 3.70414C12.3929 3.77489 12.5933 3.79848 12.782 3.78668C12.9707 3.79848 13.1593 3.77489 13.3362 3.70414C13.5131 3.6334 13.6782 3.52727 13.8079 3.39756C13.9376 3.26786 14.0437 3.10278 14.1144 2.9259C14.1852 2.74903 14.2088 2.56037 14.197 2.3717C14.2088 2.18304 14.1852 1.98259 14.1144 1.80571C14.0083 1.53451 13.8197 1.29868 13.5838 1.13359C13.348 0.968514 13.065 0.885857 12.7702 0.885857C12.4754 0.885857 12.1924 0.968514 11.9566 1.13359C11.7208 1.29868 11.5321 1.53451 11.426 1.80571C11.3552 1.98259 11.3198 2.17125 11.3434 2.3717M15.1993 2.3717C15.1993 2.69008 15.1403 3.00844 15.0224 3.29144C14.9045 3.58623 14.7158 3.84564 14.4918 4.06968C14.2677 4.29372 13.9965 4.47059 13.7017 4.58851C13.4069 4.70642 13.0886 4.75359 12.7702 4.7418C12.4518 4.7418 12.1335 4.69463 11.8387 4.58851C11.5439 4.48238 11.2727 4.30551 11.0486 4.08147C10.8246 3.85743 10.6359 3.5979 10.518 3.30312C10.3883 3.00833 10.3294 2.70187 10.3294 2.3835C10.3294 1.91184 10.4709 1.44017 10.7539 1.05105C11.0251 0.661935 11.4024 0.355356 11.8505 0.178483C12.1453 0.0605682 12.4636 0.0134031 12.782 0.0251946C13.1004 0.0134031 13.4187 0.0605682 13.7135 0.178483C14.0083 0.296398 14.2795 0.46148 14.5036 0.685519C14.7276 0.909557 14.9045 1.16885 15.0224 1.46364C15.1403 1.75843 15.1993 2.07692 15.1875 2.3835H15.1993V2.3717Z" fill="#1D1D1B"/>
<path d="M16.7675 1.92375V1.94733C16.9444 1.86479 17.1449 1.82942 17.3453 1.84121H18.4419C18.9018 1.84121 19.0551 1.86479 19.1494 1.92375V1.90017C19.1494 1.75867 19.1141 1.61717 19.0669 1.48747C19.0079 1.35776 18.9136 1.23984 18.8075 1.14551C18.7014 1.05118 18.5717 0.98043 18.4302 0.933264C18.2887 0.886098 18.1472 0.874308 17.9939 0.8861C17.6873 0.862516 17.3925 0.968639 17.1567 1.1573C16.9208 1.35776 16.7793 1.62896 16.744 1.93554H16.7558L16.7675 1.92375ZM20.1753 2.37183V2.56049H17.3218C17.1213 2.58408 16.9208 2.56049 16.744 2.48974H16.7204L16.7558 2.61945C16.7558 2.79632 16.8029 2.9614 16.8737 3.11469C16.9444 3.26798 17.0506 3.40948 17.1803 3.5274C17.31 3.64531 17.4632 3.72785 17.6283 3.78681C17.7934 3.84577 17.9585 3.86935 18.1354 3.85756C18.3948 3.85756 18.6542 3.7986 18.8782 3.68069C19.1141 3.56277 19.3145 3.39769 19.4796 3.19723L20.0574 3.83398C19.8334 4.12876 19.5386 4.36459 19.1966 4.51788C18.8664 4.68297 18.5009 4.75371 18.1236 4.75371C17.817 4.7655 17.5104 4.71834 17.2156 4.61222C16.9208 4.50609 16.6614 4.32922 16.4374 4.11697C16.2251 3.89293 16.0483 3.63352 15.9421 3.33873C15.836 3.04395 15.7889 2.73737 15.8124 2.43079C15.8124 0.992222 16.7086 0.0371094 18.0646 0.0371094C19.4206 0.0371094 20.1753 0.921475 20.1753 2.38362" fill="#1D1D1B"/>
<path d="M23.5123 4.03385L23.2883 3.2437C23.1703 2.79562 23.0171 2.64233 22.6515 2.64233H22.2388C22.1327 2.64233 22.0384 2.64245 21.9322 2.61887C21.9676 2.74858 21.9912 2.88995 21.9794 3.01966V4.58793H21.0243V0.142532H21.9794V1.52226C21.9794 1.65196 21.9794 1.78155 21.9322 1.91126C22.0384 1.91126 22.1327 1.91126 22.2388 1.91126H22.6515C23.0289 1.91126 23.1232 1.82884 23.2883 1.36897L23.6066 0.578819C23.7363 0.260448 23.9958 0.130859 24.4674 0.130859H24.9391V0.97973H24.774C24.6679 0.967939 24.55 0.97973 24.4556 1.05048C24.3613 1.10944 24.3023 1.20377 24.2787 1.32168L24.1137 1.7108C23.984 2.08813 23.6892 2.25333 23.1704 2.25333V2.28859C23.7246 2.28859 23.9957 2.46546 24.1137 2.86637L24.3023 3.50323C24.3731 3.73906 24.4438 3.77432 24.7504 3.77432H24.998V4.58793H24.4438C23.9368 4.61151 23.6538 4.43476 23.5359 4.03385" fill="#1D1D1B"/>
<path d="M29.5731 0.152344V1.02492H28.1935C28.0991 1.02492 28.0048 1.02491 27.9223 0.98954C27.9576 1.07208 27.9694 1.15462 27.9694 1.23716V4.59774H26.9907V1.24895C26.9907 1.16641 26.9907 1.08387 27.0379 1.00133C26.9554 1.03671 26.861 1.0485 26.7667 1.03671H25.3871V0.164133H29.5613L29.5731 0.152344Z" fill="#1D1D1B"/>
<path d="M33.8416 2.37002C33.8299 2.57048 33.8534 2.75914 33.9242 2.9478C33.9949 3.13647 34.0893 3.30155 34.2308 3.44305C34.3605 3.58455 34.5256 3.70246 34.7024 3.785C34.8793 3.86754 35.0798 3.90292 35.2684 3.90292C35.4571 3.90292 35.6575 3.86754 35.8344 3.785C36.0113 3.70246 36.1764 3.59634 36.3061 3.45484C36.4358 3.31334 36.5419 3.13647 36.6009 2.9596C36.6716 2.77093 36.6952 2.58227 36.6834 2.38181C36.6834 2.01628 36.5301 1.67432 36.2825 1.41491C36.0349 1.15549 35.6929 1.00221 35.3274 0.978622C34.9736 0.955039 34.6081 1.07295 34.3369 1.30878C34.0539 1.53282 33.877 1.86298 33.8299 2.21673C33.8299 2.2639 33.8299 2.31106 33.8299 2.37002H33.8416ZM37.6975 2.37002C37.6975 2.85347 37.5796 3.32513 37.3202 3.72604C37.0607 4.12696 36.6834 4.44533 36.2471 4.64578C35.8108 4.83445 35.3156 4.8934 34.8439 4.81086C34.3723 4.72832 33.936 4.50428 33.594 4.16233C33.2521 3.83217 33.0162 3.39588 32.9219 2.92422C32.8276 2.45256 32.8747 1.96911 33.0516 1.52103C33.2285 1.07295 33.5469 0.695625 33.936 0.42442C34.3369 0.153215 34.8086 0.0117188 35.2802 0.0117188C35.5986 0.0117188 35.9052 0.0588838 36.1999 0.165007C36.4947 0.282923 36.7777 0.448004 37.0018 0.672043C37.2258 0.896081 37.4027 1.15549 37.5206 1.45028C37.6385 1.74507 37.6975 2.05165 37.6857 2.37002" fill="#1D1D1B"/>
<path d="M42.19 0.152344V1.02492H40.8104C40.7161 1.02492 40.6218 1.02491 40.5392 0.98954C40.5746 1.07208 40.5864 1.15462 40.5864 1.23716V4.59774H39.6313V1.24895C39.6313 1.16641 39.6431 1.08387 39.6784 1.00133C39.5959 1.03671 39.5016 1.0485 39.4072 1.03671H38.004V0.164133H42.19V0.152344Z" fill="#1D1D1B"/>
</svg>
