<svg width="174" height="27" viewBox="0 0 174 27" fill="none" xmlns="http://www.w3.org/2000/svg">
<path d="M56.288 23.115C56.288 22.7754 56.191 22.4357 56.013 22.1446C55.8351 21.8534 55.5602 21.627 55.2367 21.4814C54.9132 21.352 54.5735 21.3197 54.2338 21.3844C53.8942 21.4491 53.5868 21.6108 53.3442 21.8534C53.1016 22.096 52.9398 22.4034 52.8751 22.743C52.8104 23.0827 52.8428 23.4385 52.9722 23.7459C53.1016 24.0694 53.328 24.3443 53.6192 24.5384C53.8942 24.7163 54.2338 24.8296 54.5573 24.8296C54.7676 24.8296 54.994 24.8134 55.1881 24.7325C55.3984 24.6678 55.5925 24.5546 55.7542 24.409C55.916 24.2635 56.0454 24.0857 56.1424 23.8916C56.2395 23.6975 56.288 23.4871 56.3042 23.2606V23.115H56.288ZM52.0179 22.5166C52.0179 21.4167 52.2929 20.1551 53.2957 19.5566C53.9427 19.2655 54.6058 19.0552 55.3014 18.9258C55.6087 18.8287 55.8351 18.667 55.8675 18.4082H56.563C56.563 18.667 56.4983 18.9258 56.3204 19.1361C56.1586 19.3302 55.916 19.4757 55.6572 19.5081C54.9779 19.6375 54.3147 19.8316 53.6677 20.0904C53.0531 20.4139 52.7134 21.1256 52.6487 22.0313H52.6811C52.8428 21.627 53.1178 21.2873 53.4898 21.0447C53.8618 20.8021 54.2823 20.6888 54.7191 20.7212C55.0264 20.7212 55.3337 20.7697 55.6249 20.8829C55.916 20.9962 56.1748 21.1741 56.3851 21.4005C56.5954 21.627 56.7571 21.8858 56.8703 22.1769C56.9674 22.4681 57.0159 22.7755 56.9997 23.0829C56.9997 23.4064 56.9512 23.7297 56.838 24.037C56.7086 24.3443 56.5306 24.6193 56.3042 24.8457C56.0778 25.0722 55.7866 25.2501 55.4793 25.3633C55.172 25.4766 54.8485 25.5252 54.525 25.5091C53.1178 25.5414 52.0179 24.7163 52.0179 22.5328" fill="#1D1D1B"/>
<path d="M57.954 20.7988H58.6657V24.2764L61.286 20.7988H61.9977V25.3601H61.2698V21.8825L58.698 25.3763H57.9702L57.954 20.7988Z" fill="#1D1D1B"/>
<path d="M62.7741 25.0901L63.0814 24.4754C63.5829 24.7342 64.1328 24.8796 64.6989 24.8635C65.443 24.8635 65.9767 24.6695 65.9767 24.0711C65.9767 23.4726 65.54 23.2945 64.7474 23.2945H63.874V22.6639H64.6989C65.3944 22.6639 65.8311 22.502 65.8311 22.0005C65.8311 21.4991 65.3944 21.3375 64.7151 21.3375C64.1975 21.3375 63.6637 21.4508 63.1785 21.6449L62.9197 20.9977C63.502 20.7713 64.1166 20.6582 64.7313 20.6582C65.8797 20.6582 66.559 21.0949 66.559 21.839C66.559 21.9845 66.5267 22.1139 66.4781 22.2433C66.4296 22.3727 66.3487 22.502 66.2517 22.599C66.0414 22.7931 65.7664 22.9063 65.4753 22.9063C66.2517 23.0034 66.6722 23.4077 66.6722 24.1194C66.6722 24.9605 66.0576 25.5106 64.6504 25.5106C63.9872 25.5268 63.3402 25.3812 62.7579 25.0739" fill="#1D1D1B"/>
<path d="M71.7187 20.7988V25.3601H71.007V23.2736H68.3544V25.3601H67.6427V20.7988H68.3544V22.6266H71.007V20.7988H71.7187Z" fill="#1D1D1B"/>
<path d="M73.417 22.6287H76.4094C76.4094 22.4508 76.3608 22.2727 76.2799 22.0948C76.1991 21.933 76.1021 21.7715 75.9565 21.6582C75.8271 21.5288 75.6653 21.4478 75.4874 21.3831C75.3095 21.3346 75.1316 21.3024 74.9375 21.3186C74.5654 21.2862 74.1934 21.4156 73.9023 21.6582C73.6111 21.9008 73.4332 22.2567 73.417 22.6287ZM77.1696 23.0654V23.1947H73.3847C73.3847 23.4049 73.417 23.6314 73.4979 23.8255C73.5788 24.0358 73.692 24.2138 73.8537 24.3594C74.0155 24.505 74.1934 24.6344 74.4037 24.6991C74.5978 24.78 74.8242 24.8123 75.0345 24.7961C75.3418 24.7961 75.6491 24.7153 75.9241 24.5697C76.1991 24.4079 76.4255 24.1975 76.5873 23.9225L77.1049 24.3918C76.8784 24.7314 76.5711 25.0224 76.2152 25.2165C75.8594 25.4106 75.455 25.5078 75.0345 25.4916C74.711 25.4916 74.3875 25.4591 74.0963 25.3297C73.8052 25.2165 73.5302 25.0386 73.3038 24.8121C73.0774 24.5857 72.9156 24.3107 72.8024 24.0034C72.6892 23.6961 72.6406 23.3728 72.673 23.0654C72.673 21.6421 73.595 20.623 74.986 20.623C76.4902 20.6554 77.1857 21.6906 77.1857 23.0493" fill="#1D1D1B"/>
<path d="M77.8327 23.0992C77.8327 22.7757 77.8812 22.4522 77.9945 22.1449C78.1077 21.8375 78.3018 21.5626 78.5283 21.3361C78.7547 21.1097 79.0458 20.9317 79.3531 20.8185C79.6605 20.7053 79.9839 20.6568 80.3074 20.673C80.8574 20.673 81.4073 20.8185 81.8764 21.1097L81.5367 21.7243C81.1647 21.4979 80.7442 21.3685 80.3074 21.3523C79.8384 21.3523 79.4017 21.5302 79.0782 21.8699C78.7547 22.1934 78.5606 22.6463 78.5606 23.0992C78.5606 23.5521 78.7385 24.0049 79.0782 24.3284C79.4017 24.6519 79.8545 24.846 80.3074 24.846C80.7442 24.846 81.1647 24.7005 81.5367 24.474L81.8764 25.0887C81.4073 25.3798 80.8735 25.5254 80.3074 25.5254C79.9839 25.5415 79.6605 25.493 79.3531 25.3798C79.0458 25.2666 78.7708 25.0887 78.5444 24.8622C78.3018 24.6358 78.1239 24.3608 78.0107 24.0696C77.8974 23.7623 77.8327 23.4388 77.8489 23.1153L77.8327 23.0992Z" fill="#1D1D1B"/>
<path d="M56.9027 10.5781C57.2909 10.5781 57.6791 10.4973 58.0511 10.3517C58.4069 10.1899 58.7304 9.96349 59.0054 9.68852C59.2803 9.39738 59.4906 9.07388 59.6362 8.70187C59.7656 8.32985 59.8303 7.94165 59.8141 7.53729C59.8303 7.14909 59.7656 6.7609 59.6362 6.38888C59.4906 6.01686 59.2803 5.69337 59.0054 5.40222C58.7304 5.12725 58.4069 4.9008 58.0349 4.75523C57.679 4.60966 57.2909 4.52879 56.8865 4.54496C56.1101 4.52879 55.3661 4.81993 54.8161 5.3537C54.2662 5.88746 53.9427 6.61533 53.9265 7.39171V7.55346C53.9265 7.95783 53.975 8.34602 54.1206 8.71804C54.2662 9.09006 54.4926 9.42973 54.7676 9.7047C55.0426 9.99584 55.3822 10.2223 55.7542 10.3679C56.1263 10.5134 56.5145 10.5943 56.9027 10.5943V10.5781ZM56.9027 3.00836C59.523 3.00836 61.6419 4.93315 61.6419 7.53729C61.6419 8.75039 61.1404 9.91497 60.2832 10.7561C59.4259 11.6133 58.2613 12.0824 57.0482 12.0824C56.4659 12.1147 55.8998 12.0177 55.3661 11.7912C54.8161 11.581 54.3309 11.2413 53.9427 10.8046H53.8456V17.4039H52.1149V8.26515C52.1149 5.04638 53.9589 2.99219 56.9027 2.99219" fill="#1D1D1B"/>
<path d="M68.047 10.5614C68.6455 10.5614 69.2278 10.3997 69.713 10.06C70.1983 9.72033 70.5865 9.25126 70.7806 8.70132C70.9261 8.3293 70.9908 7.9411 70.9747 7.55291C70.9747 7.16472 70.9261 6.76035 70.7806 6.40451C70.635 6.03249 70.4247 5.69282 70.1498 5.41785C69.8748 5.14288 69.5513 4.91643 69.1793 4.75468C68.8073 4.60911 68.4191 4.52824 68.0309 4.52824C67.6427 4.52824 67.2383 4.60911 66.8825 4.75468C66.5266 4.91643 66.187 5.14288 65.912 5.41785C65.637 5.70899 65.4268 6.03249 65.2812 6.40451C65.1356 6.77652 65.0709 7.16472 65.0871 7.55291C65.0709 7.9411 65.1356 8.34547 65.265 8.71749C65.4106 9.08951 65.6208 9.42918 65.8958 9.70415C66.1708 9.99529 66.4943 10.2217 66.8663 10.3673C67.2383 10.5129 67.6265 10.5938 68.0147 10.5938L68.047 10.5614ZM63.2593 7.55291C63.2593 4.93261 65.4429 3.00781 68.047 3.00781C70.6512 3.00781 72.8348 4.93261 72.8348 7.55291C72.8348 10.1732 70.6512 12.098 68.047 12.098C65.4429 12.098 63.2593 10.1732 63.2593 7.55291Z" fill="#1D1D1B"/>
<path d="M79.2399 12.0824C76.4902 12.0824 74.4199 10.1899 74.4199 7.53729C74.4199 4.88463 76.4579 2.99219 79.159 2.99219C81.2618 2.99219 83.2189 4.12442 83.7041 6.30801H81.9249C81.7146 5.77424 81.3427 5.30517 80.8574 4.99785C80.3722 4.69053 79.806 4.52879 79.2238 4.57731C78.8194 4.57731 78.4312 4.64185 78.0592 4.78742C77.6872 4.93299 77.3636 5.1596 77.0725 5.45075C76.7975 5.74189 76.5873 6.08156 76.4417 6.45358C76.2961 6.8256 76.2476 7.22997 76.2638 7.63433C76.2476 8.02253 76.3123 8.4269 76.4579 8.79891C76.6035 9.17093 76.8299 9.5106 77.1049 9.78557C77.396 10.0605 77.7357 10.2546 78.1077 10.4002C78.4797 10.5458 78.8679 10.6105 79.2723 10.5943C79.8546 10.6267 80.4369 10.4811 80.9383 10.1414C81.4235 9.81792 81.7955 9.33268 81.9896 8.78274H83.785C83.5262 9.7694 82.9278 10.6428 82.1029 11.2413C81.2779 11.8398 80.2751 12.1471 79.2561 12.1147" fill="#1D1D1B"/>
<path d="M90.2388 10.8543L87.3759 4.83732H87.3274V11.9057H85.6452V3.1875H88.3302L91.1608 9.15598H91.2255L94.056 3.20368H96.741V11.9057H95.0589V4.83732H94.9942L92.1636 10.8381L90.2388 10.8543Z" fill="#1D1D1B"/>
<path d="M103.389 10.5614C103.777 10.5614 104.181 10.4967 104.537 10.3511C104.893 10.2056 105.233 9.97912 105.508 9.68797C105.783 9.413 105.993 9.07333 106.139 8.70132C106.284 8.3293 106.349 7.9411 106.317 7.55291C106.333 7.16472 106.268 6.76035 106.122 6.40451C105.977 6.03249 105.767 5.69282 105.492 5.41785C105.217 5.1267 104.893 4.91643 104.521 4.75468C104.165 4.60911 103.761 4.52824 103.373 4.52824C102.985 4.52824 102.58 4.60911 102.224 4.75468C101.868 4.91643 101.529 5.14288 101.254 5.41785C100.979 5.70899 100.769 6.03249 100.623 6.40451C100.494 6.77652 100.429 7.16472 100.429 7.55291C100.413 7.9411 100.477 8.34547 100.607 8.71749C100.736 9.08951 100.947 9.42918 101.221 9.72032C101.496 10.0115 101.82 10.2379 102.192 10.3997C102.564 10.5452 102.952 10.6261 103.34 10.6261V10.5776L103.389 10.5614ZM98.6012 7.55291C98.6012 4.93261 100.785 3.00781 103.389 3.00781C105.993 3.00781 108.177 4.94878 108.177 7.55291C108.177 10.157 105.993 12.098 103.389 12.098C100.785 12.098 98.6012 10.1732 98.6012 7.55291Z" fill="#1D1D1B"/>
<path d="M109.018 11.9713V10.1759H109.05C109.244 10.1759 109.422 10.1436 109.6 10.0627C109.778 9.98182 109.94 9.88494 110.069 9.73937C110.392 9.36735 110.538 8.72019 110.732 7.78206L110.991 6.3912C111.282 4.7899 111.864 3.15625 114.258 3.15625H117.671V11.9066H115.924V4.80591H114.566C113.207 4.80591 112.916 5.17793 112.592 7.03802L112.333 8.332C112.139 9.52893 111.832 10.5643 111.217 11.2274C110.959 11.4862 110.635 11.6965 110.295 11.8421C109.956 11.9715 109.568 12.036 109.212 12.0198H109.034L109.018 11.9713Z" fill="#1D1D1B"/>
<path d="M124.367 10.5614C124.756 10.5614 125.144 10.4967 125.516 10.3511C125.872 10.1894 126.195 9.97912 126.454 9.68797C126.729 9.413 126.939 9.07334 127.085 8.70132C127.23 8.3293 127.295 7.94111 127.263 7.55291C127.279 7.16472 127.214 6.76035 127.069 6.40451C126.939 6.03249 126.713 5.69282 126.438 5.41785C126.033 4.9973 125.5 4.70616 124.917 4.57676C124.335 4.46354 123.737 4.51206 123.187 4.75468C122.831 4.91643 122.507 5.14288 122.232 5.41785C121.957 5.70899 121.747 6.03249 121.618 6.40451C121.472 6.77653 121.424 7.16472 121.424 7.55291C121.407 7.94111 121.456 8.34547 121.602 8.71749C121.731 9.08951 121.957 9.42918 122.232 9.72032C122.491 10.0115 122.815 10.2379 123.171 10.3835C123.543 10.5291 123.931 10.6099 124.319 10.6099V10.5776L124.367 10.5614ZM119.58 7.55291C119.58 4.93261 121.763 3.00781 124.367 3.00781C126.972 3.00781 129.139 4.93261 129.139 7.55291C129.139 8.16755 128.993 8.76618 128.751 9.33229C128.508 9.89841 128.152 10.3997 127.699 10.8202C127.263 11.2407 126.729 11.5804 126.163 11.7907C125.597 12.0171 124.982 12.1142 124.367 12.098C121.78 12.098 119.58 10.1732 119.58 7.55291Z" fill="#1D1D1B"/>
<path d="M136.806 10.3222V4.74192H135.172C134.121 4.74192 133.749 5.58301 133.538 6.47262L133.166 8.15479C133.037 8.89883 132.746 9.59434 132.293 10.1928V10.3222H136.79H136.806ZM131.145 14.0262H129.462V10.2899H130.595C131.112 9.73991 131.371 8.89883 131.598 7.87982L131.97 6.26235C132.325 4.70957 132.989 3.14062 135.156 3.14062H138.536V10.2899H139.798V14.0262H138.116V11.9073H131.145V14.0262Z" fill="#1D1D1B"/>
<path d="M146.786 0H148.581V1.81157H146.786V0ZM148.613 6.71235C148.5 6.06536 148.144 5.48323 147.627 5.07887C147.109 4.6745 146.462 4.48024 145.799 4.51259C145.136 4.48024 144.489 4.69051 143.955 5.09488C143.421 5.49925 143.049 6.06536 142.904 6.71235H148.597H148.613ZM142.871 0H144.667V1.81157H142.871V0ZM145.88 12.0985C143.098 12.0985 141.092 10.2061 141.092 7.55344C141.092 4.90078 143.13 3.0085 145.831 3.0085C147.918 3.0085 150.441 4.38335 150.441 7.69917V8.07119H142.839C143.017 9.52691 144.149 10.5781 145.896 10.5781C146.915 10.5781 148.144 10.2063 148.468 9.31664H150.231C149.713 11.2253 147.691 12.0985 145.896 12.0985" fill="#1D1D1B"/>
<path d="M158.642 3.20368V6.64889H160.097L162.168 3.20368H164.06L161.521 7.36058L164.287 11.9219H162.33L160.162 8.25019H158.674V11.9219H157.024V8.23402H155.536L153.336 11.9057H151.379L154.145 7.34441L151.589 3.1875H153.482L155.536 6.66507H156.992V3.20368H158.642Z" fill="#1D1D1B"/>
<path d="M169.721 10.5626C170.029 10.5788 170.352 10.5304 170.643 10.4172C170.935 10.304 171.21 10.1422 171.42 9.9158C171.646 9.70553 171.824 9.4304 171.937 9.13925C172.051 8.8481 172.115 8.54095 172.115 8.21745C172.115 7.74838 172.002 7.27932 171.743 6.89112C171.485 6.48676 171.129 6.17944 170.692 5.98534C170.255 5.79124 169.786 5.74256 169.317 5.82343C169.01 5.83961 168.702 5.93682 168.427 6.06621C168.152 6.21179 167.894 6.40572 167.7 6.63217C167.489 6.87479 167.344 7.14976 167.247 7.4409C167.15 7.73205 167.117 8.05554 167.133 8.36286C167.15 8.67018 167.247 8.9775 167.376 9.25247C167.522 9.52744 167.716 9.78624 167.942 9.98034C168.185 10.1906 168.46 10.3363 168.751 10.4334C169.042 10.5304 169.366 10.5628 169.673 10.5466H169.721V10.5626ZM165.516 7.99101L165.484 3.20312H167.247V5.66184H167.295C167.635 5.2413 168.055 4.90163 168.541 4.67519C169.026 4.44874 169.56 4.33552 170.093 4.35169C170.595 4.35169 171.112 4.4324 171.582 4.61033C172.051 4.80442 172.487 5.07939 172.843 5.43524C173.199 5.79108 173.49 6.21179 173.684 6.68085C173.878 7.14992 173.975 7.65117 173.975 8.16877C173.975 10.4009 172.196 12.1154 169.77 12.1154C169.22 12.1316 168.67 12.0509 168.136 11.8568C167.619 11.6627 167.15 11.3552 166.745 10.967C166.341 10.5788 166.034 10.1261 165.807 9.60848C165.597 9.09089 165.484 8.54095 165.484 7.99101" fill="#1D1D1B"/>
<path d="M21.9006 26.2216L4.6583 15.9668V25.3805H0V7.7662L21.3992 20.5119L43.3806 1.83008V25.3805H38.7223V11.9069L21.9006 26.2216Z" fill="#CED741"/>
</svg>
