<svg width="23" height="25" viewBox="0 0 23 25" fill="none" xmlns="http://www.w3.org/2000/svg">
<g clip-path="url(#clip0_710_108)">
<path d="M6.03434 0C6.49147 0.212256 6.64224 0.586749 6.6356 1.10745C6.6163 2.62723 6.62897 4.147 6.62837 5.66742C6.62837 6.3292 6.32562 6.65111 5.69963 6.65559C5.30221 6.65816 4.90478 6.65816 4.50676 6.65559C3.87051 6.65175 3.56476 6.32727 3.56415 5.65203C3.56295 4.15662 3.57501 2.66057 3.55752 1.16516C3.55149 0.639332 3.67572 0.228928 4.15094 0L6.03434 0Z" fill="#E94E1C"/>
<path d="M18.8026 0C19.27 0.219951 19.4069 0.613682 19.4003 1.13695C19.3822 2.64069 19.3942 4.14444 19.3936 5.64818C19.3936 6.32727 19.0909 6.65175 18.4564 6.65559C18.0433 6.65816 17.6308 6.66073 17.2177 6.65495C16.6424 6.64598 16.3288 6.30739 16.3282 5.69563C16.3264 4.17586 16.3397 2.65544 16.321 1.13566C16.3143 0.611758 16.4518 0.21931 16.9198 0H18.8032L18.8026 0Z" fill="#E94E1C"/>
<path d="M8.19153 2.7855H14.8085C14.8085 2.88554 14.8085 2.97275 14.8085 3.05996C14.8085 3.93848 14.806 4.81764 14.8085 5.69616C14.8127 6.98188 15.546 7.95146 16.725 8.22271C16.8878 8.2599 17.0591 8.26183 17.2268 8.26375C17.6628 8.26888 18.0994 8.26824 18.5354 8.26504C19.9515 8.25606 20.9381 7.20825 20.9477 5.69873C20.9532 4.82021 20.9489 3.94105 20.9489 3.06253C20.9489 2.97596 20.9489 2.88875 20.9489 2.80282C21.9344 2.77909 22.9095 3.72558 22.9759 4.74454C22.9909 4.97154 22.9982 5.19919 22.9982 5.42684C22.9994 11.1225 22.9988 16.8181 22.9994 22.5144C22.9994 22.9748 22.953 23.4205 22.7298 23.8302C22.3348 24.5549 21.7456 24.9415 20.9622 24.9973C20.9085 25.0012 20.8549 24.9999 20.8018 24.9999C14.6022 24.9999 8.40321 24.9999 2.20362 24.9999C1.13377 24.9999 0.338922 24.3618 0.0681419 23.2711C0.0126592 23.0466 0.00301001 22.8042 0.00301001 22.5708C-5.35489e-06 16.7764 -0.000608428 10.9827 0.00120079 5.18957C0.00120079 4.01736 0.545173 3.20617 1.54627 2.874C1.69704 2.82398 1.85746 2.80602 2.05044 2.76562C2.05044 2.89067 2.04984 2.98558 2.05044 3.07984C2.05889 4.08854 2.03356 5.09916 2.08542 6.10529C2.14332 7.2262 3.15105 8.21951 4.20462 8.25542C4.74739 8.27401 5.29136 8.27209 5.83473 8.26311C7.18561 8.24067 8.18008 7.16913 8.18973 5.72759C8.19576 4.84073 8.19093 3.95387 8.19093 3.06702C8.19093 2.97916 8.19093 2.89131 8.19093 2.7855H8.19153ZM11.5 11.5213C8.92065 11.5213 6.34131 11.5213 3.76196 11.5213C3.04491 11.5213 2.69211 11.8952 2.69211 12.6615C2.69091 15.5991 2.69091 18.5367 2.69211 21.4743C2.69211 22.2361 3.04793 22.6093 3.76739 22.6093C8.911 22.6093 14.054 22.6093 19.1976 22.6093C19.9123 22.6093 20.2687 22.2303 20.2687 21.4685C20.2693 18.5309 20.2693 15.5933 20.2687 12.6557C20.2687 11.8965 19.9117 11.522 19.1916 11.522C16.6273 11.522 14.0637 11.522 11.4994 11.522L11.5 11.5213Z" fill="#E94E1C"/>
<path d="M10.0321 14.7708C10.0321 14.4617 10.0273 14.1527 10.0333 13.8436C10.0411 13.4595 10.245 13.235 10.605 13.2299C11.2015 13.2215 11.7985 13.2215 12.3955 13.2299C12.755 13.235 12.9618 13.4595 12.9661 13.8442C12.9727 14.4624 12.9715 15.0805 12.9667 15.6987C12.9636 16.104 12.7568 16.3381 12.372 16.3464C11.7907 16.3586 11.2087 16.3586 10.6279 16.3464C10.2353 16.3381 10.0363 16.0995 10.0327 15.6744C10.0303 15.3736 10.0327 15.0722 10.0327 14.7715L10.0321 14.7708Z" fill="#E94E1C"/>
<path d="M6.84367 21.2885C6.56082 21.2885 6.27738 21.2911 5.99454 21.2885C5.59953 21.2847 5.38905 21.0814 5.38242 20.6697C5.37277 20.0439 5.37277 19.4167 5.38242 18.7908C5.38845 18.3945 5.60013 18.1765 5.97403 18.1714C6.54756 18.1637 7.12168 18.165 7.69581 18.1707C8.08057 18.1746 8.30431 18.3869 8.31396 18.794C8.32964 19.4199 8.32964 20.0471 8.31396 20.6729C8.30371 21.084 8.08298 21.2853 7.69279 21.2892C7.40995 21.2917 7.12651 21.2892 6.84367 21.2892V21.2885Z" fill="#E94E1C"/>
<path d="M11.4898 21.2884C11.2069 21.2884 10.9235 21.291 10.6406 21.2878C10.2511 21.2827 10.0376 21.0665 10.0334 20.66C10.0273 20.0418 10.0279 19.4237 10.0334 18.8055C10.037 18.413 10.248 18.177 10.6153 18.1713C11.2039 18.1617 11.7937 18.1617 12.3823 18.1713C12.7502 18.177 12.9625 18.4117 12.9661 18.8036C12.9715 19.4217 12.9715 20.0399 12.9661 20.6581C12.9625 21.0659 12.7502 21.2833 12.3618 21.2884C12.0711 21.2923 11.7805 21.2891 11.4898 21.2891V21.2884Z" fill="#E94E1C"/>
<path d="M17.6194 19.7512C17.6194 20.0603 17.6272 20.3694 17.6176 20.6785C17.6049 21.078 17.3993 21.2851 17.0199 21.2877C16.4464 21.2915 15.8723 21.2915 15.2982 21.2877C14.9122 21.2851 14.6945 21.0767 14.6848 20.6631C14.6704 20.0456 14.6716 19.4267 14.6848 18.8086C14.6939 18.3885 14.9152 18.1731 15.3132 18.1699C15.8795 18.1654 16.4458 18.1641 17.0121 18.1699C17.4005 18.1737 17.6025 18.3898 17.6212 18.7989C17.6218 18.815 17.6218 18.8317 17.6218 18.8477C17.6218 19.1484 17.6218 19.4498 17.6218 19.7506H17.6206L17.6194 19.7512Z" fill="#E94E1C"/>
<path d="M5.37943 14.7748C5.37943 14.4741 5.374 14.1727 5.38063 13.8719C5.39028 13.4404 5.58749 13.2313 5.99275 13.2275C6.55904 13.2224 7.12532 13.2224 7.69161 13.2275C8.09386 13.2307 8.30734 13.4404 8.31579 13.8655C8.32785 14.4754 8.32725 15.0858 8.31579 15.6957C8.30795 16.117 8.09325 16.3401 7.69764 16.3465C7.13135 16.3555 6.56507 16.3549 5.99878 16.3465C5.58809 16.3408 5.38787 16.1195 5.38003 15.6771C5.3746 15.3763 5.37882 15.0749 5.37882 14.7742L5.37943 14.7748Z" fill="#E94E1C"/>
<path d="M16.1847 13.2276C16.4754 13.2276 16.7667 13.2205 17.0573 13.2295C17.3993 13.2404 17.6073 13.4437 17.6146 13.804C17.6266 14.4549 17.6266 15.1058 17.6146 15.756C17.6079 16.1215 17.3999 16.337 17.0423 16.3453C16.4531 16.3594 15.8639 16.3588 15.2747 16.3453C14.9104 16.337 14.6981 16.1267 14.6873 15.74C14.6692 15.0981 14.668 14.4543 14.6891 13.8124C14.7017 13.4244 14.9194 13.2346 15.2891 13.2276C15.5876 13.2218 15.8862 13.2263 16.1847 13.2263V13.2276Z" fill="#E94E1C"/>
</g>
<defs>
<clipPath id="clip0_710_108">
<rect width="23" height="25" fill="white"/>
</clipPath>
</defs>
</svg>
