<svg width="39" height="34" viewBox="0 0 39 34" fill="none" xmlns="http://www.w3.org/2000/svg">
<path d="M38.9992 1.06756C38.805 2.00414 38.6101 2.9453 38.4159 3.88722C37.8181 6.7855 37.2256 9.68454 36.6232 12.5813C35.9493 15.8238 35.2631 19.0633 34.5891 22.3058C33.9434 25.4117 33.3082 28.5191 32.667 31.6258C32.5726 32.083 32.4728 32.5395 32.3746 32.9959C32.1606 33.9966 31.3701 34.2928 30.5377 33.6867C28.8905 32.4876 27.241 31.2915 25.5938 30.0923C24.3548 29.1908 23.1195 28.284 21.879 27.3864C21.0375 26.7773 20.445 26.7811 19.6507 27.4223C18.3789 28.4489 17.1193 29.4901 15.8552 30.5259C15.5711 30.7587 15.2848 30.9892 15.0045 31.2266C14.2194 31.8899 13.4053 31.6708 13.0984 30.6907C12.2828 28.0909 11.4794 25.4865 10.6698 22.8844C10.366 21.9081 10.069 20.9288 9.74303 19.9602C9.68896 19.7991 9.52828 19.6152 9.37368 19.5564C6.55902 18.487 3.7375 17.4336 0.916747 16.3795C0.159011 16.0963 -0.15246 15.5757 0.0706724 14.9376C0.203181 14.5575 0.50399 14.3743 0.860393 14.2369C4.81128 12.7126 8.75988 11.1837 12.7085 9.65553C18.8214 7.29081 24.9335 4.92532 31.0464 2.56059C33.1506 1.74691 35.2547 0.932459 37.3604 0.121063C38.1219 -0.17281 38.7403 0.0790813 38.9406 0.759951C38.9688 0.855365 38.9787 0.956121 39 1.06756H38.9992ZM14.1356 26.8505C14.4349 26.8544 14.5727 26.6681 14.6085 26.4055C14.7448 25.4148 14.8857 24.424 14.9946 23.4294C15.1066 22.4005 15.4493 21.5188 16.2436 20.7952C18.3454 18.8824 20.4123 16.9298 22.492 14.9933C24.702 12.9355 26.9113 10.8768 29.1205 8.81742C29.5569 8.41058 29.9902 8.00068 30.4265 7.5946C30.5789 7.45263 30.7106 7.2702 30.5164 7.11753C30.4121 7.0351 30.192 7.0954 30.0244 7.10303C29.9795 7.10532 29.9369 7.15036 29.8935 7.17631C26.6455 9.18075 23.3967 11.1852 20.1495 13.1912C17.644 14.7384 15.1378 16.2856 12.6361 17.8382C11.8746 18.3107 11.5974 19.0694 11.8426 19.9357C12.1076 20.8731 12.3704 21.8112 12.6361 22.7485C12.9804 23.9637 13.3269 25.1781 13.6726 26.3926C13.7411 26.6322 13.8188 26.8628 14.1364 26.849L14.1356 26.8505Z" fill="#1E1E1E"/>
</svg>
