<svg width="61" height="34" viewBox="0 0 61 34" fill="none" xmlns="http://www.w3.org/2000/svg">
<path d="M0 2.35486C0.56096 1.71436 1.31123 1.55661 2.12552 1.55389C4.883 1.54437 7.64187 1.51446 10.3993 1.52533C11.6521 1.53077 12.4567 2.15632 13.0093 3.27959C14.553 6.41548 16.144 9.52961 17.7837 12.6179C18.4783 13.9248 19.3636 15.131 20.5774 16.053C20.8544 16.2624 21.1703 16.4473 21.4974 16.5629C22.2421 16.8268 22.8101 16.6418 23.0912 15.9333C23.3947 15.1691 23.6299 14.3586 23.7538 13.5481C24.1784 10.7521 24.1881 7.95895 23.6021 5.16982C23.2861 3.66715 22.3632 2.8553 20.8711 2.56565C20.1194 2.41878 20.0582 2.21072 20.576 1.65044C21.3624 0.796437 22.3813 0.429268 23.5186 0.302799C26.8008 -0.0616503 30.0845 -0.167721 33.3556 0.385752C34.9995 0.664528 35.5201 1.24792 35.6843 2.93281C35.8374 4.5062 35.7149 6.10678 35.6941 7.69377C35.6704 9.47658 35.5855 11.2607 35.6091 13.0422C35.6203 13.8432 35.7219 14.6768 35.9752 15.4342C36.3942 16.6908 37.3658 16.8485 38.4 15.9986C39.9785 14.7013 41.0378 13.0164 42.1291 11.3546C43.8036 8.80751 45.1622 6.09998 46.3189 3.29454C46.9314 1.80683 47.2167 1.645 48.8328 1.63413C52.0468 1.61373 55.2609 1.56749 58.4749 1.54301C58.8674 1.54029 59.2711 1.56885 59.6525 1.65316C60.7716 1.90066 61.2449 2.50173 60.8774 3.5502C60.4264 4.83665 59.9072 6.15166 59.1389 7.2722C57.275 9.98925 55.2469 12.5975 53.2926 15.2547C52.6802 16.087 52.0385 16.9056 51.497 17.7828C50.7648 18.9686 50.8859 20.0157 51.877 21.0111C53.2731 22.4145 54.7305 23.7581 56.1461 25.1438C57.6898 26.6546 59.1806 28.2185 60.2691 30.0843C60.5935 30.6391 60.7981 31.2932 60.9067 31.9255C61.0612 32.8244 60.1995 33.6567 59.1041 33.7505C58.3942 33.8117 57.6801 33.8484 56.9674 33.8634C54.8057 33.9083 52.6398 33.8729 50.4809 33.9885C48.1619 34.1122 46.3036 33.231 44.7362 31.6862C43.4389 30.4066 42.2474 29.0263 40.9738 27.7221C40.4991 27.2353 39.9576 26.7933 39.3883 26.4167C38.4724 25.8101 37.7764 25.9203 37.0248 26.7145C36.0504 27.7439 35.8402 29.044 35.7108 30.3644C35.6676 30.8077 35.6857 31.2565 35.644 31.6998C35.5117 33.1154 35.0426 33.7355 33.6075 33.794C30.3253 33.9273 27.0096 34.1218 23.854 32.9128C19.7004 31.3204 16.1454 28.9025 13.3071 25.5055C7.8089 18.9278 3.71236 11.5463 0.238025 3.80586C0.160076 3.6318 0.0793418 3.45909 0 3.28502V2.35486Z" fill="#1E1E1E"/>
</svg>
