<svg width="12" height="16" viewBox="0 0 12 16" fill="none" xmlns="http://www.w3.org/2000/svg">
<path d="M5.86947 16C5.74061 15.9018 5.59148 15.8204 5.48611 15.7023C3.88866 13.907 2.43303 12.0143 1.29471 9.9096C0.788564 8.97343 0.356982 8.00635 0.133695 6.96494C-0.17753 5.51315 0.0542674 4.14234 0.832735 2.86777C1.63065 1.56229 2.79288 0.684802 4.29592 0.249382C5.64862 -0.142222 6.99037 -0.0706298 8.29403 0.450074C9.45585 0.914444 10.3762 1.66909 11.0578 2.6929C11.5736 3.4675 11.8735 4.31682 11.9716 5.22874C12.0688 6.13283 11.9084 7.00876 11.613 7.8659C11.1716 9.14595 10.5176 10.3258 9.78207 11.4651C8.80544 12.9775 7.69063 14.3929 6.47977 15.7367C6.38453 15.8423 6.24675 15.9124 6.12883 15.9992H5.86988L5.86947 16ZM6.00118 8.70975C7.67036 8.70427 9.01657 7.39645 9.0109 5.78504C9.00523 4.18655 7.62862 2.86581 5.98821 2.88498C4.31821 2.90493 2.98335 4.20298 2.98659 5.80499C2.98983 7.40662 4.34739 8.71483 6.00118 8.70936V8.70975Z" fill="#E94E1C"/>
</svg>
